<?xml version="1.0" encoding="UTF-8"?>
<svg xmlns="http://www.w3.org/2000/svg"
     width="1024" height="1024" viewBox="0 0 1024 1024"
     role="img" aria-labelledby="title desc">
  <title id="title">Prism NLP logo</title>
  <desc id="desc">Seven translucent rainbow triangles overlap in a circular prism rosette above a geometric Prism wordmark, on a transparent background.</desc>

  <defs>
    <g id="prism-rosette" style="isolation:isolate">
      <path d="M512 126 L718 718 L306 718 Z" fill="#FF3B4E" fill-opacity=".54" style="mix-blend-mode:screen"/>
      <path d="M512 126 L718 718 L306 718 Z" fill="#FF7A21" fill-opacity=".54" style="mix-blend-mode:screen" transform="rotate(51.4286 512 512)"/>
      <path d="M512 126 L718 718 L306 718 Z" fill="#FFD21F" fill-opacity=".54" style="mix-blend-mode:screen" transform="rotate(102.8571 512 512)"/>
      <path d="M512 126 L718 718 L306 718 Z" fill="#31C967" fill-opacity=".54" style="mix-blend-mode:screen" transform="rotate(154.2857 512 512)"/>
      <path d="M512 126 L718 718 L306 718 Z" fill="#16C7D9" fill-opacity=".54" style="mix-blend-mode:screen" transform="rotate(205.7143 512 512)"/>
      <path d="M512 126 L718 718 L306 718 Z" fill="#3478F6" fill-opacity=".54" style="mix-blend-mode:screen" transform="rotate(257.1429 512 512)"/>
      <path d="M512 126 L718 718 L306 718 Z" fill="#8A4DFF" fill-opacity=".54" style="mix-blend-mode:screen" transform="rotate(308.5714 512 512)"/>
    </g>
  </defs>

  <!-- Transparent canvas: intentionally no background rectangle. -->
  <use href="#prism-rosette" transform="translate(164 30) scale(.68)"/>

  <!-- Custom geometric PRISM wordmark; all glyphs are vectors, not font text. -->
  <g fill="none" stroke="#24233D" stroke-width="15" stroke-linecap="butt" stroke-linejoin="miter">
    <path d="M209 851 V746 H256 C284 746 299 759 299 779 C299 800 284 813 256 813 H209"/>
    <path d="M346 851 V746 H393 C421 746 436 759 436 779 C436 800 421 813 393 813 H346"/>
    <path d="M399 813 L442 851"/>
    <path d="M517 739 V859"/>
    <path d="M682 760 C670 751 653 746 634 746 C608 746 592 757 592 774 C592 791 609 797 636 801 C664 805 680 811 680 828 C680 843 663 851 636 851 C615 851 596 846 583 835"/>
    <path d="M738 857 V759 L778 819 L818 759 V857"/>
  </g>
</svg>
